<?xml version="1.0" encoding="UTF-8" standalone="no"?>
<svg
   xmlns:dc="http://purl.org/dc/elements/1.1/"
   xmlns:cc="http://creativecommons.org/ns#"
   xmlns:rdf="http://www.w3.org/1999/02/22-rdf-syntax-ns#"
   xmlns:svg="http://www.w3.org/2000/svg"
   xmlns="http://www.w3.org/2000/svg"
   xmlns:sodipodi="http://sodipodi.sourceforge.net/DTD/sodipodi-0.dtd"
   xmlns:inkscape="http://www.inkscape.org/namespaces/inkscape"
   width="340.39563mm"
   height="373.75702mm"
   viewBox="0 0 340.39563 373.75702"
   version="1.1"
   id="svg8"
   inkscape:version="1.0.2 (e86c8708, 2021-01-15)"
   sodipodi:docname="patreon.svg">
  <defs
     id="defs2" />
  <sodipodi:namedview
     id="base"
     pagecolor="#ffffff"
     bordercolor="#666666"
     borderopacity="1.0"
     inkscape:pageopacity="0.0"
     inkscape:pageshadow="2"
     inkscape:zoom="0.25447726"
     inkscape:cx="-139.97489"
     inkscape:cy="901.11313"
     inkscape:document-units="mm"
     inkscape:current-layer="layer1"
     inkscape:document-rotation="0"
     showgrid="false"
     inkscape:window-width="1252"
     inkscape:window-height="847"
     inkscape:window-x="123"
     inkscape:window-y="27"
     inkscape:window-maximized="0" />
  <metadata
     id="metadata5">
    <rdf:RDF>
      <cc:Work
         rdf:about="">
        <dc:format>image/svg+xml</dc:format>
        <dc:type
           rdf:resource="http://purl.org/dc/dcmitype/StillImage" />
        <dc:title></dc:title>
      </cc:Work>
    </rdf:RDF>
  </metadata>
  <g
     inkscape:label="Layer 1"
     inkscape:groupmode="layer"
     id="layer1"
     transform="translate(53.79239,123.35564)">
    <path
       style="fill:#000000;stroke-width:0.352778"
       d="m 25.047223,250.29308 c -0.291042,-0.0616 -1.957917,-0.29697 -3.704167,-0.52299 -15.7927659,-2.04428 -30.4448253,-11.50243 -41.374127,-26.70775 -4.984256,-6.9343 -10.391386,-16.90077 -14.029618,-25.85956 -1.987233,-4.89342 -6.213298,-17.49228 -7.441212,-22.18404 -3.56496,-13.62139 -6.47199,-28.05152 -7.719271,-38.31735 -0.117863,-0.97014 -0.277248,-2.00202 -0.354189,-2.29306 -0.154516,-0.58444 -1.073114,-8.13766 -1.394389,-11.46527 -0.112395,-1.16417 -0.276648,-2.59292 -0.365019,-3.175 -0.242747,-1.59915 -1.487276,-17.08327 -1.99898,-24.870838 -0.290301,-4.418287 -0.454307,-15.018999 -0.458435,-29.633333 -0.006,-21.307051 0.113771,-25.151387 1.060732,-34.043056 0.08266,-0.776111 0.319476,-2.998611 0.526309,-4.938889 1.013037,-9.504757 3.217792,-21.8295674 5.490281,-30.6916662 0.696559,-2.7163889 1.419542,-5.5738889 1.60662,-6.3499998 0.533294,-2.212407 2.906007,-9.376086 5.12385,-15.469877 1.875014,-5.151872 7.905926,-18.033457 10.182118,-21.748179 0.416102,-0.679097 1.362992,-2.266597 2.104178,-3.527778 8.020755,-13.647832 20.6718593,-27.708553 33.6953203,-37.449724 19.5153827,-14.59694 47.6409767,-25.52974 79.1986047,-30.78557 5.703287,-0.94987 9.54987,-1.50851 12.347221,-1.79319 0.970139,-0.0987 3.11326,-0.33767 4.7625,-0.53098 12.4884,-1.46375 35.34724,-1.72551 49.2125,-0.56352 23.10962,1.9367 46.09715,6.84972 62.44166,13.34536 22.58998,8.97773 43.07801,25.226896 55.86405,44.306124 8.4256,12.572559 13.46775,25.100135 16.0002,39.753445 0.70707,4.091287 0.79103,5.747046 0.77812,15.3458332 -0.0134,9.98127927 -0.0833,11.1782296 -0.96569,16.54435 -1.61036,9.7931568 -3.46538,16.6764128 -6.66486,24.7306498 -8.9923,22.637048 -25.59928,41.512734 -47.44769,53.929626 -3.28831,1.868823 -13.14824,6.68993 -15.09469,7.3807 -0.58208,0.206573 -2.40771,0.872469 -4.05694,1.479769 -3.97475,1.463622 -8.48815,2.81064 -15.34583,4.57992 -30.03381,7.748723 -42.36829,12.797783 -55.91528,22.888643 -5.93577,4.42143 -14.82481,13.90568 -19.43184,20.73299 -4.01493,5.94992 -9.99106,17.0802 -14.18297,26.4153 -0.87129,1.94027 -2.21686,4.87715 -2.99015,6.52639 -0.77325,1.64923 -2.7099,5.93548 -4.30364,9.525 -8.371239,18.85438 -16.265135,32.93621 -23.533097,41.98055 -12.905316,16.05947 -27.688468,23.54855 -46.516287,23.56503 -2.51721,0.004 -4.814852,-0.0464 -5.105893,-0.10806 z"
       id="path847" />
  </g>
</svg>
